<svg width="61" height="31" viewBox="0 0 61 31" fill="none" xmlns="http://www.w3.org/2000/svg">
<g clip-path="url(#clip0_72_4440)">
<path d="M61 2.7686C60.8345 1.41493 59.8299 0.336029 58.5504 0.125977C52.9427 0.125977 8.0817 0.125977 2.47395 0.125977C1.07254 0.356185 0 1.62817 0 3.16112C0 5.62552 0 25.3365 0 27.7998C0 29.4972 1.3123 30.8732 2.93224 30.8732C8.4477 30.8732 52.5767 30.8732 58.0922 30.8732C59.5837 30.8732 60.8154 29.7051 61 28.1934C61 23.1087 61 5.31045 61 2.7686Z" fill="#F6C700"/>
<path d="M7.35693 6.30469H12.1977V24.9389H7.35693V6.30469Z" fill="black"/>
<path d="M21.3446 14.8881C20.9287 12.0482 20.6974 10.4696 20.6518 10.1545C20.4492 8.63429 20.2561 7.31138 20.0715 6.18262C19.6525 6.18262 17.5615 6.18262 13.7954 6.18262V24.8168H18.0357L18.0506 12.5128L19.8349 24.8168H22.8552L24.5473 12.2391L24.5632 24.8168H28.7897V6.18262H22.4659L21.3446 14.8881Z" fill="black"/>
<path d="M36.7814 10.059C36.8345 10.2967 36.862 10.8356 36.862 11.6779C36.862 12.4004 36.862 18.18 36.862 18.9024C36.862 20.1426 36.7814 20.9022 36.6212 21.1823C36.46 21.4623 36.0314 21.6013 35.3365 21.6013C35.3365 20.3781 35.3365 10.5927 35.3365 9.36947C35.8638 9.36947 36.2234 9.42569 36.4143 9.53603C36.6053 9.64742 36.7284 9.8214 36.7814 10.059ZM38.9679 24.6269C39.5439 24.5007 40.0277 24.2779 40.4202 23.9607C40.8117 23.6424 41.0864 23.2021 41.2434 22.6388C41.4015 22.0766 41.4949 20.9595 41.4949 19.2886C41.4949 18.6351 41.4949 13.3997 41.4949 12.7452C41.4949 10.982 41.4259 9.80018 41.3187 9.19973C41.2105 8.59822 40.9421 8.05187 40.5125 7.56175C40.0818 7.07163 39.4537 6.71942 38.6284 6.50512C37.802 6.29083 36.4547 6.18262 34.1112 6.18262C33.8704 6.18262 32.6674 6.18262 30.5 6.18262V24.8168H36.3645C37.716 24.7744 38.5838 24.7118 38.9679 24.6269Z" fill="black"/>
<path d="M49.3051 21.8423C49.216 22.0789 48.8256 22.1988 48.5307 22.1988C48.2421 22.1988 48.0501 22.0842 47.9525 21.854C47.8549 21.6248 47.8071 21.1018 47.8071 20.2828C47.8071 19.7906 47.8071 15.8505 47.8071 15.3583C47.8071 14.5096 47.8496 13.9802 47.9355 13.7691C48.0204 13.5601 48.2071 13.454 48.4956 13.454C48.7906 13.454 49.1863 13.5739 49.2881 13.8147C49.3889 14.0555 49.4398 14.5701 49.4398 15.3583C49.4398 15.6765 49.4398 17.2678 49.4398 20.1333C49.4091 21.1146 49.3645 21.6842 49.3051 21.8423ZM43.1436 24.6547H47.5016C47.683 23.9428 47.7827 23.5471 47.8029 23.4676C48.1975 23.945 48.6314 24.3035 49.1078 24.5412C49.582 24.7799 50.2917 24.8987 50.8412 24.8987C51.6061 24.8987 52.266 24.6982 52.8229 24.2961C53.3788 23.8951 53.7332 23.4198 53.8838 22.8735C54.0344 22.3261 54.1098 21.4944 54.1098 20.3762C54.1098 19.8532 54.1098 15.6712 54.1098 15.1482C54.1098 14.0237 54.0843 13.2896 54.0344 12.9448C53.9846 12.6 53.8361 12.2489 53.5889 11.8892C53.3417 11.5296 52.9821 11.2506 52.511 11.0512C52.04 10.8517 51.4841 10.752 50.8433 10.752C50.2864 10.752 49.5735 10.8634 49.0982 11.083C48.624 11.3026 48.1933 11.6357 47.8071 12.0823C47.8071 11.6781 47.8071 9.65823 47.8071 6.02051H43.1436V24.6547Z" fill="black"/>
</g>
<defs>
<clipPath id="clip0_72_4440">
<rect width="61" height="30.7472" fill="white" transform="translate(0 0.125977)"/>
</clipPath>
</defs>
</svg>
