<svg width="20" height="21" viewBox="0 0 20 21" fill="none" xmlns="http://www.w3.org/2000/svg">
<path d="M9.99996 2.1665C5.39996 2.1665 1.66663 5.89984 1.66663 10.4998C1.66663 15.0998 5.39996 18.8332 9.99996 18.8332C14.6 18.8332 18.3333 15.0998 18.3333 10.4998C18.3333 5.89984 14.6 2.1665 9.99996 2.1665ZM9.99996 14.6665C9.54163 14.6665 9.16663 14.2915 9.16663 13.8332V10.4998C9.16663 10.0415 9.54163 9.6665 9.99996 9.6665C10.4583 9.6665 10.8333 10.0415 10.8333 10.4998V13.8332C10.8333 14.2915 10.4583 14.6665 9.99996 14.6665ZM10.8333 7.99984H9.16663V6.33317H10.8333V7.99984Z" fill="#797979"/>
</svg>
